<?xml version="1.0" encoding="utf-8"?>
<!-- Generator: Adobe Illustrator 21.0.1, SVG Export Plug-In . SVG Version: 6.00 Build 0)  -->
<svg version="1.1" id="Layer_1" xmlns="http://www.w3.org/2000/svg" xmlns:xlink="http://www.w3.org/1999/xlink" x="0px" y="0px"
	 viewBox="0 0 297 49" style="enable-background:new 0 0 297 49;" xml:space="preserve">
<style type="text/css">
	.st0{fill:#FFFFFF;}
</style>
<g>
	<path class="st0" d="M31.5,43l0.4,2.1l0.5-2.2l5.8-18.4h2.3l5.7,18.2l0.6,2.5l0.5-2.3l4.9-18.4H55l-7,24h-2.3l-6.2-19.1l-0.3-1.3
		L39,29.5l-6.1,19h-2.3l-7-24h2.7L31.5,43z"/>
	<path class="st0" d="M69.4,49c-2,0-3.9-0.5-5.5-1.5s-2.9-2.4-3.9-4.2s-1.4-3.8-1.4-6.1v-1c0-2.3,0.4-4.4,1.3-6.2
		c0.9-1.9,2.1-3.3,3.7-4.4c1.6-1.1,3.3-1.6,5.2-1.6c2.9,0,5.2,1,6.9,3s2.6,4.7,2.6,8.2v1.5H61.3v0.5c0,2.7,0.8,5,2.3,6.8
		c1.6,1.8,3.5,2.7,5.9,2.7c1.4,0,2.7-0.3,3.8-0.8c1.1-0.5,2.1-1.3,3-2.5l1.7,1.3C75.9,47.6,73.1,49,69.4,49z M68.9,26.3
		c-2,0-3.7,0.7-5.1,2.2s-2.2,3.4-2.5,5.9h14.4v-0.3c-0.1-2.3-0.7-4.2-2-5.6S70.9,26.3,68.9,26.3z"/>
	<path class="st0" d="M102.9,36.8c0,3.7-0.8,6.7-2.5,8.9c-1.7,2.2-3.9,3.3-6.7,3.3c-3.3,0-5.9-1.2-7.6-3.7L86,48.6h-2.5V14.4h2.6V28
		c1.7-2.6,4.2-3.9,7.5-3.9c2.8,0,5.1,1.1,6.7,3.3c1.7,2.2,2.5,5.2,2.5,9V36.8z M100.2,36.3c0-3.2-0.6-5.6-1.8-7.3
		c-1.2-1.7-3-2.6-5.2-2.6c-1.7,0-3.1,0.4-4.3,1.3c-1.2,0.8-2.1,2.1-2.7,3.7v10.8c1.3,3,3.7,4.5,7.1,4.5c2.2,0,3.9-0.9,5.1-2.6
		C99.6,42.4,100.2,39.8,100.2,36.3z"/>
	<path class="st0" d="M107.7,18.3c0-1,0.3-1.8,1-2.4c0.6-0.6,1.5-0.9,2.6-0.9c1.1,0,2,0.3,2.6,0.9c0.7,0.6,1,1.4,1,2.4
		c0,1-0.3,1.8-1,2.4s-1.5,0.9-2.6,0.9s-2-0.3-2.6-0.9S107.7,19.3,107.7,18.3z M114.5,48.6h-6.4v-24h6.4V48.6z"/>
	<path class="st0" d="M125.7,24.5l0.2,2.8c1.7-2.1,4-3.2,6.9-3.2c2.5,0,4.4,0.7,5.7,2.2c1.2,1.5,1.9,3.7,1.9,6.7v15.5H134V33.2
		c0-1.4-0.3-2.4-0.9-3c-0.6-0.6-1.6-0.9-3-0.9c-1.8,0-3.2,0.8-4.1,2.3v17h-6.4v-24H125.7z"/>
	<path class="st0" d="M154.3,40.7l4.5-16.2h6.7l-8.1,24h-6.1l-8.1-24h6.7L154.3,40.7z"/>
	<path class="st0" d="M167,36.3c0-2.4,0.5-4.5,1.4-6.4c0.9-1.9,2.2-3.3,4-4.3c1.7-1,3.7-1.5,6-1.5c3.2,0,5.9,1,7.9,3
		c2.1,2,3.2,4.7,3.4,8.1l0,1.6c0,3.7-1,6.6-3.1,8.9c-2.1,2.2-4.8,3.3-8.3,3.3c-3.5,0-6.2-1.1-8.3-3.3c-2.1-2.2-3.1-5.2-3.1-9.1V36.3
		z M173.4,36.8c0,2.3,0.4,4,1.3,5.2c0.9,1.2,2.1,1.8,3.7,1.8c1.6,0,2.8-0.6,3.6-1.8c0.9-1.2,1.3-3.1,1.3-5.7c0-2.2-0.4-4-1.3-5.2
		c-0.9-1.2-2.1-1.8-3.7-1.8c-1.6,0-2.8,0.6-3.6,1.8C173.8,32.3,173.4,34.2,173.4,36.8z"/>
	<path class="st0" d="M193.6,18.3c0-1,0.3-1.8,1-2.4c0.6-0.6,1.5-0.9,2.6-0.9c1.1,0,2,0.3,2.6,0.9c0.7,0.6,1,1.4,1,2.4
		c0,1-0.3,1.8-1,2.4c-0.7,0.6-1.5,0.9-2.6,0.9s-2-0.3-2.6-0.9C194,20.1,193.6,19.3,193.6,18.3z M200.4,48.6H194v-24h6.4V48.6z"/>
	<path class="st0" d="M215.7,43.8c1.2,0,2.1-0.3,2.9-1c0.7-0.7,1.1-1.5,1.2-2.6h6c0,1.6-0.5,3.1-1.3,4.5c-0.9,1.4-2.1,2.4-3.6,3.2
		c-1.5,0.7-3.2,1.1-5,1.1c-3.4,0-6.1-1.1-8.1-3.3c-2-2.2-3-5.2-3-9v-0.4c0-3.7,1-6.7,3-8.9c2-2.2,4.7-3.3,8.1-3.3
		c3,0,5.4,0.9,7.2,2.6c1.8,1.7,2.7,4,2.8,6.8h-6c0-1.2-0.4-2.3-1.2-3c-0.7-0.8-1.7-1.2-2.9-1.2c-1.5,0-2.6,0.5-3.4,1.6
		c-0.8,1.1-1.1,2.9-1.1,5.3v0.7c0,2.5,0.4,4.3,1.1,5.3S214.2,43.8,215.7,43.8z"/>
	<path class="st0" d="M240.5,49c-3.5,0-6.4-1.1-8.6-3.2c-2.2-2.2-3.3-5-3.3-8.6v-0.6c0-2.4,0.5-4.6,1.4-6.5c0.9-1.9,2.3-3.4,4-4.4
		c1.7-1,3.7-1.5,5.9-1.5c3.3,0,5.9,1,7.8,3.1s2.8,5,2.8,8.8v2.6h-15.3c0.2,1.6,0.8,2.8,1.9,3.8c1,0.9,2.4,1.4,4,1.4
		c2.5,0,4.4-0.9,5.8-2.7l3.2,3.5c-1,1.4-2.3,2.4-3.9,3.2S242.5,49,240.5,49z M239.8,29.3c-1.3,0-2.3,0.4-3.1,1.3
		c-0.8,0.9-1.3,2.1-1.5,3.7h8.9v-0.5c0-1.4-0.4-2.5-1.2-3.3C242.2,29.6,241.1,29.3,239.8,29.3z"/>
	<path class="st0" d="M267,41.9c0-0.8-0.4-1.4-1.2-1.9c-0.8-0.5-2-0.9-3.7-1.2c-5.7-1.2-8.6-3.6-8.6-7.3c0-2.1,0.9-3.9,2.7-5.3
		c1.8-1.4,4.1-2.1,6.9-2.1c3,0,5.5,0.7,7.3,2.2c1.8,1.4,2.7,3.3,2.7,5.6h-6.4c0-0.9-0.3-1.7-0.9-2.3c-0.6-0.6-1.5-0.9-2.8-0.9
		c-1.1,0-1.9,0.2-2.5,0.7c-0.6,0.5-0.9,1.1-0.9,1.9c0,0.7,0.3,1.3,1,1.7c0.7,0.4,1.8,0.8,3.4,1.1c1.6,0.3,2.9,0.7,4,1.1
		c3.4,1.2,5.1,3.4,5.1,6.5c0,2.2-0.9,4-2.8,5.3s-4.3,2-7.3,2c-2,0-3.8-0.4-5.4-1.1c-1.6-0.7-2.8-1.7-3.7-3c-0.9-1.3-1.3-2.6-1.3-4.1
		h6.1c0.1,1.1,0.5,2,1.3,2.6s1.8,0.9,3.2,0.9c1.2,0,2.2-0.2,2.8-0.7C266.7,43.3,267,42.7,267,41.9z"/>
</g>
<rect x="294.9" y="16" class="st0" width="2.1" height="33"/>
<rect y="0.2" class="st0" width="2" height="49.3"/>
<polygon class="st0" points="281,0 281,16 297,16 "/>
<rect x="139.5" y="-139.5" transform="matrix(-3.815332e-10 1 -1 -3.815332e-10 141.5 -139.5)" class="st0" width="2" height="281"/>
</svg>
