<?xml version="1.0" encoding="utf-8"?>
<!-- Generator: Adobe Illustrator 21.0.1, SVG Export Plug-In . SVG Version: 6.00 Build 0)  -->
<svg version="1.1" id="Layer_1" xmlns="http://www.w3.org/2000/svg" xmlns:xlink="http://www.w3.org/1999/xlink" x="0px" y="0px"
	 viewBox="0 0 356 60" style="enable-background:new 0 0 356 60;" xml:space="preserve">
<style type="text/css">
	.st0{fill:#FCFCFC;}
</style>
<path class="st0" d="M96.1,19.5l-9,24c-0.5,1.1-1.6,2-2.9,2c-1.3,0-2.4-0.8-2.8-2l-6.2-16.6L69,43.5c-0.5,1.1-1.6,2-2.9,2
	c-1.3,0-2.4-0.8-2.8-2l-9-24c-0.6-1.6,0.2-3.3,1.7-3.8c1.5-0.6,3.2,0.2,3.8,1.7l6.3,16.7l6.2-16.6c0.3-0.8,0.9-1.6,1.8-1.9
	c0.3-0.1,0.6-0.2,0.9-0.2c0.1,0,0.1,0,0.1,0c0.1,0,0.1,0,0.1,0c0.1,0,0.1,0,0.1,0c0,0,0,0,0.1,0h0.1c0.1,0,0.1,0,0.1,0
	c0.1,0,0.1,0,0.1,0c0.1,0,0.1,0,0.1,0c0,0,0,0.1,0.1,0.1h0.1c0.1,0,0.1,0,0.1,0c0.1,0,0.1,0,0.1,0.1c0.1,0,0.1,0,0.1,0
	c0.1,0.1,0.1,0.1,0.1,0.1c0.8,0.3,1.5,1,1.7,1.9l6.2,16.6l6.3-16.7c0.6-1.6,2.3-2.3,3.8-1.7C95.9,16.2,96.7,18,96.1,19.5z"/>
<path class="st0" d="M127.4,30.4c0,1.6-1.3,2.9-3,2.9h-20.7c1.3,3.6,4.6,6.2,8.6,6.2c1.4,0,3.8-0.1,6.7-2c1.4-0.9,3.2-0.1,4,1.4
	c0.7,1.5-0.1,3.1-1.4,4c-4,2.6-7,2.6-9.2,2.6c-8.3,0-15.1-6.8-15.1-15.1c0-8.3,6.7-15.1,15.1-15.1C119.6,15.4,127.4,20.7,127.4,30.4
	z M103.7,27.4h17.3c-1.3-4.2-5.1-6.1-8.7-6.1C108.4,21.3,105,23.9,103.7,27.4z"/>
<path class="st0" d="M161.2,30.3c0,8.3-6.7,15.1-15.1,15.1c-8.3,0-15.1-6.8-15.1-15.1v-0.1V3.4c0-1.6,1.3-2.9,3-2.9
	c1.6,0,2.9,1.3,2.9,2.9v14.9c2.5-1.9,5.7-3.1,9.1-3.1C154.5,15.3,161.2,22,161.2,30.3z M155.3,30.3c0-5-4.1-9.1-9.1-9.1
	c-5,0-9.1,4.1-9.1,9.1v0.1c0,5,4.1,9.1,9.1,9.1C151.2,39.4,155.3,35.3,155.3,30.3z"/>
<path class="st0" d="M165.6,8.6c-0.5-0.5-0.9-1.3-0.9-2.1c0-0.8,0.4-1.6,0.9-2.1s1.3-0.9,2.1-0.9c0.8,0,1.6,0.4,2.1,0.9
	s0.8,1.3,0.8,2.1c0,0.8-0.3,1.6-0.8,2.1s-1.3,0.8-2.1,0.8C166.9,9.4,166.1,9.1,165.6,8.6z M164.7,42.6V18.4c0-1.6,1.3-2.9,3-2.9
	c1.6,0,2.9,1.3,2.9,2.9v24.2c0,1.7-1.3,3-2.9,3C166,45.6,164.7,44.2,164.7,42.6z"/>
<path class="st0" d="M204.2,30.4v12.1c0,1.7-1.3,3-3,3c-1.6,0-2.9-1.3-2.9-3V30.4c0-5-4.1-9.1-9.1-9.1s-9.1,4.1-9.1,9.1v12.1
	c0,1.7-1.3,3-3,3c-1.6,0-2.9-1.3-2.9-3V30.4c0-8.3,6.8-15.1,15.1-15.1C197.4,15.4,204.2,22.1,204.2,30.4z"/>
<path class="st0" d="M229.1,19.5l-9,24c-0.5,1.2-1.6,2-2.8,2c-0.1,0-0.1,0-0.1,0c-1.3,0-2.4-0.8-2.8-2l-9-24
	c-0.6-1.6,0.2-3.3,1.7-3.8c1.6-0.6,3.2,0.2,3.8,1.7l6.3,16.7l6.2-16.7c0.6-1.6,2.3-2.3,3.8-1.7C228.9,16.2,229.7,18,229.1,19.5z"/>
<path class="st0" d="M230.3,30.4c0-8.3,6.8-15.1,15.1-15.1c8.3,0,15.1,6.7,15.1,15.1c0,8.3-6.7,15.1-15.1,15.1
	C237.1,45.5,230.3,38.7,230.3,30.4z M236.2,30.4c0,5,4.1,9.1,9.1,9.1s9.1-4.1,9.1-9.1c0-5-4.1-9.1-9.1-9.1S236.2,25.4,236.2,30.4z"
	/>
<path class="st0" d="M264.7,8.6c-0.5-0.5-0.9-1.3-0.9-2.1c0-0.8,0.4-1.6,0.9-2.1s1.3-0.9,2.1-0.9c0.8,0,1.6,0.4,2.1,0.9
	s0.8,1.3,0.8,2.1c0,0.8-0.3,1.6-0.8,2.1s-1.3,0.8-2.1,0.8C266,9.4,265.3,9.1,264.7,8.6z M263.8,42.6V18.4c0-1.6,1.3-2.9,3-2.9
	c1.6,0,2.9,1.3,2.9,2.9v24.2c0,1.7-1.3,3-2.9,3C265.1,45.6,263.8,44.2,263.8,42.6z"/>
<path class="st0" d="M273.2,30.5c0-8.3,6.7-15.1,15-15.1c5.4,0,10.4,2.9,13.1,7.5c0.8,1.4,0.3,3.2-1.1,4.1c-1.4,0.8-3.2,0.3-4.1-1.1
	c-1.6-2.8-4.6-4.6-7.9-4.6c-5,0-9.1,4.1-9.1,9.1c0,5,4.1,9.1,9.1,9.1c3.1,0,6-1.6,7.7-4.2c0.9-1.4,2.8-1.7,4.1-0.9
	c1.4,0.9,1.7,2.8,0.8,4.1c-2.8,4.3-7.5,6.9-12.7,6.9C279.9,45.6,273.2,38.8,273.2,30.5z"/>
<path class="st0" d="M334.5,30.4c0,1.6-1.3,2.9-3,2.9h-20.7c1.3,3.6,4.6,6.2,8.6,6.2c1.4,0,3.8-0.1,6.7-2c1.4-0.9,3.2-0.1,4,1.4
	c0.7,1.5-0.1,3.1-1.4,4c-4,2.6-7,2.6-9.2,2.6c-8.3,0-15.1-6.8-15.1-15.1c0-8.3,6.7-15.1,15.1-15.1C326.7,15.4,334.5,20.7,334.5,30.4
	z M310.8,27.4h17.3c-1.3-4.2-5.1-6.1-8.7-6.1C315.4,21.3,312.1,23.9,310.8,27.4z"/>
<path class="st0" d="M355.7,36.5c0,5-4,9.1-9,9.1c-4.3,0-7.7-3.1-8.8-6.5c-0.5-1.6,0.7-3.2,2.3-3.5c1.6-0.3,2.8,0.8,3.5,2.3
	c0.8,1.6,1.6,1.8,3,1.8c1.7,0,3.1-1.4,3.1-3.1c0-1.7-1.4-3.1-3.1-3.1c-2.4,0-4.7-1-6.4-2.6c-1.7-1.7-2.6-4-2.6-6.4c0-5,4-9,9-9
	c4.2,0,8,2.9,8.6,6.2c0.3,1.6-0.7,3.2-2.3,3.5c-1.6,0.4-3-0.7-3.5-2.2c-0.4-1-1.4-1.6-2.8-1.6c-1.7,0-3.1,1.4-3.1,3.1
	c0,1.7,1.4,3.1,3.1,3.1c2.4,0,4.7,1,6.4,2.6C354.8,31.9,355.7,34.1,355.7,36.5z"/>
<path class="st0" d="M21.8,8.1c-0.6-0.6-1.7-1-2.4-1H2.2c-0.8,0-1.4,0.6-1.4,1.4v43c0,0.8,0.6,1.4,1.4,1.4h34.4
	c0.8,0,1.4-0.6,1.4-1.4V25.7c0-0.8-0.5-1.9-1-2.4L21.8,8.1L21.8,8.1z M35.1,50.1H3.6V9.9h15.7c0.1,0,0.4,0.1,0.5,0.2l15.1,15.1
	c0.1,0.1,0.2,0.4,0.2,0.5V50.1z M36.6,7.1H28c-0.8,0-1,0.5-0.4,1l9.4,9.4c0.6,0.6,1,0.4,1-0.4V8.5C38,7.7,37.4,7.1,36.6,7.1
	L36.6,7.1z"/>
<path class="st0" d="M29.4,45H9.3c-0.8,0-1.4-0.6-1.4-1.4c0-0.8,0.6-1.4,1.4-1.4h20.1c0.8,0,1.4,0.6,1.4,1.4
	C30.8,44.3,30.2,45,29.4,45z"/>
<path class="st0" d="M29.4,39.2H9.3c-0.8,0-1.4-0.6-1.4-1.4c0-0.8,0.6-1.4,1.4-1.4h20.1c0.8,0,1.4,0.6,1.4,1.4
	C30.8,38.6,30.2,39.2,29.4,39.2z"/>
<path class="st0" d="M29.4,33.5H9.3c-0.8,0-1.4-0.6-1.4-1.4c0-0.8,0.6-1.4,1.4-1.4h20.1c0.8,0,1.4,0.6,1.4,1.4
	C30.8,32.9,30.2,33.5,29.4,33.5z"/>
<path class="st0" d="M18.7,20.1h-10c-0.4,0-0.7-0.6-0.7-1.4c0-0.8,0.3-1.4,0.7-1.4h10c0.4,0,0.7,0.6,0.7,1.4
	C19.4,19.4,19.1,20.1,18.7,20.1z"/>
</svg>
