<svg id="icons" xmlns="http://www.w3.org/2000/svg" viewBox="0 0 320 45.2"><style>.st0{fill:#fff}</style><path class="st0" d="M42.8 19.1l-9 24c-.5 1.1-1.6 2-2.9 2-1.3 0-2.4-.8-2.8-2l-6.2-16.6-6.2 16.6c-.5 1.1-1.6 2-2.9 2-1.3 0-2.4-.8-2.8-2l-9-24c-.6-1.6.2-3.3 1.7-3.8 1.6-.7 3.3.1 3.8 1.7l6.3 16.7L19 17.1c.3-.8.9-1.6 1.8-1.9.3-.1.6-.2.9-.2h.8s0 .1.1.1h.2c.1 0 .1 0 .1.1h.1l.1.1c.8.3 1.5 1 1.7 1.9L31 33.7 37.3 17c.6-1.6 2.3-2.3 3.8-1.7 1.5.5 2.3 2.2 1.7 3.8zM74.2 30c0 1.6-1.3 2.9-3 2.9H50.5c1.3 3.6 4.6 6.2 8.6 6.2 1.4 0 3.8-.1 6.7-2 1.4-.9 3.2-.1 4 1.4.7 1.5-.1 3.1-1.4 4-4 2.6-7 2.6-9.2 2.6C50.8 45.1 44 38.3 44 30s6.7-15.1 15.1-15.1c7.3 0 15.1 5.3 15.1 15.1zm-23.7-3h17.3c-1.3-4.2-5.1-6.1-8.7-6.1-4 0-7.4 2.6-8.6 6.1zm69.5.3c.1.1.1.2.1.3v14.6c0 1.7-1.4 3-3 3s-2.9-1.3-2.9-3V27.1c0-3.4-2.8-6.1-6.1-6.1-3.4 0-6.1 2.7-6.1 6.1v15.1c0 1.7-1.3 3-2.9 3-1.6 0-3-1.3-3-3V27.1c0-3.4-2.7-6.1-6.1-6.1-3.4 0-6.1 2.7-6.1 6.1v15.1c0 1.7-1.3 3-2.9 3-1.7 0-3-1.3-3-3V27.1c0-6.6 5.4-12 12.1-12 3.6 0 6.8 1.6 9.1 4.1 2.2-2.6 5.5-4.1 9.1-4.1 6.7 0 12.1 5.4 12.1 12-.3.1-.3.1-.4.2zm33.6 2.9V42c0 1.7-1.3 3-3 3-1.2 0-2.9-1.3-2.9-3-2.6 2.2-5.5 3-8.9 3-8.5 0-15.2-6.3-15.2-14.8S130.3 15 138.8 15c8.5.1 14.8 6.8 14.8 15.2zm-5.9 0c0-5-3.8-9.3-8.9-9.3-5 0-9.3 4.3-9.3 9.3s4.3 8.9 9.3 8.9c5.1 0 8.9-3.8 8.9-8.9zm33 14c-.5.5-1.2.7-1.9.7-.9 0-1.7-.4-2.3-1.1l-11.4-13.7-1.9 1.3v10.5c0 1.7-1.4 3-3 3s-2.9-1.3-2.9-3V3.1c0-1.6 1.3-2.9 2.9-2.9s3 1.3 3 2.9v21.4l13.6-8.9c1.3-1 3.1-.9 4.2.4 1 1.3.8 3.2-.4 4.2l-10.5 6.9L181 40.2c1.1 1.1.9 3-.3 4z"/><path class="st0" d="M211.7 30c0 1.6-1.3 2.9-3 2.9H188c1.3 3.6 4.6 6.2 8.6 6.2 1.4 0 3.8-.1 6.7-2 1.4-.9 3.2-.1 4 1.4.7 1.5-.1 3.1-1.4 4-4 2.6-7 2.6-9.2 2.6-8.3 0-15.1-6.8-15.1-15.1s6.7-15.1 15.1-15.1c7.2 0 15 5.3 15 15.1zM188 27h17.3c-1.3-4.2-5.1-6.1-8.7-6.1-4 0-7.4 2.6-8.6 6.1zm66.9-7.9l-9 24c-.5 1.1-1.6 2-2.9 2-1.3 0-2.4-.8-2.8-2L234 26.5l-6.2 16.6c-.5 1.1-1.6 2-2.9 2-1.3 0-2.4-.8-2.8-2l-9-24c-.6-1.6.2-3.3 1.7-3.8 1.5-.6 3.2.2 3.8 1.7l6.3 16.7 6.2-16.6c.3-.8.9-1.6 1.8-1.9.3-.1.6-.2.9-.2h.8s0 .1.1.1h.2c.1 0 .1 0 .1.1h.1l.1.1c.8.3 1.5 1 1.7 1.9l6.2 16.6 6.3-16.7c.6-1.6 2.3-2.3 3.8-1.7 1.4.4 2.2 2.1 1.7 3.7zM286.2 30c0 1.6-1.3 2.9-3 2.9h-20.7c1.3 3.6 4.6 6.2 8.6 6.2 1.4 0 3.8-.1 6.7-2 1.4-.9 3.2-.1 4 1.4.7 1.5-.1 3.1-1.4 4-4 2.6-7 2.6-9.2 2.6-8.3 0-15.1-6.8-15.1-15.1s6.7-15.1 15.1-15.1c7.2 0 15 5.3 15 15.1zm-23.7-3h17.3c-1.3-4.2-5.1-6.1-8.7-6.1-4 0-7.3 2.6-8.6 6.1zm57.5 2.9c0 8.3-6.7 15.1-15.1 15.1-8.3 0-15.1-6.8-15.1-15.1v-27c0-1.6 1.3-2.9 3-2.9 1.6 0 2.9 1.3 2.9 2.9v14.9c2.5-1.9 5.7-3.1 9.1-3.1 8.5.1 15.2 6.8 15.2 15.2zm-6 0c0-5-4.1-9.1-9.1-9.1s-9.1 4.1-9.1 9.1v.1c0 5 4.1 9.1 9.1 9.1 5.1-.1 9.1-4.2 9.1-9.2z"/></svg>